<mxfile host="app.diagrams.net" modified="2021-09-18T05:04:26.315Z" agent="5.0 (Windows NT 10.0; Win64; x64) AppleWebKit/537.36 (KHTML, like Gecko) Chrome/93.0.4577.82 Safari/537.36" etag="3YyhHF9uSai9yNbviLiA" version="15.2.9" type="github">
  <diagram name="Page-1" id="90a13364-a465-7bf4-72fc-28e22215d7a0">
    <mxGraphModel dx="415" dy="232" grid="1" gridSize="10" guides="1" tooltips="1" connect="1" arrows="1" fold="1" page="1" pageScale="1.5" pageWidth="1169" pageHeight="826" background="none" math="0" shadow="0">
      <root>
        <mxCell id="0" style=";html=1;" />
        <mxCell id="1" style=";html=1;" parent="0" />
        <mxCell id="_ACVbjb4rTPhQJA2rkIT-1" value="&lt;h2&gt;&lt;font face=&quot;roboto&quot; data-font-src=&quot;https://fonts.googleapis.com/css?family=roboto&quot; color=&quot;#ffffff&quot;&gt;CRS&lt;/font&gt;&lt;/h2&gt;" style="ellipse;whiteSpace=wrap;html=1;aspect=fixed;strokeColor=#000000;shadow=0;fillColor=none;" parent="1" vertex="1">
          <mxGeometry x="490" y="355" width="90" height="90" as="geometry" />
        </mxCell>
        <mxCell id="_ACVbjb4rTPhQJA2rkIT-3" value="" style="endArrow=none;html=1;strokeColor=#000000;shadow=0;" parent="1" edge="1">
          <mxGeometry width="50" height="50" relative="1" as="geometry">
            <mxPoint x="580" y="390" as="sourcePoint" />
            <mxPoint x="620" y="390" as="targetPoint" />
          </mxGeometry>
        </mxCell>
        <mxCell id="_ACVbjb4rTPhQJA2rkIT-30" value="&lt;h3&gt;&lt;font face=&quot;roboto&quot; data-font-src=&quot;https://fonts.googleapis.com/css?family=roboto&quot; color=&quot;#ffffff&quot;&gt;DB&lt;/font&gt;&lt;/h3&gt;" style="shape=cylinder3;whiteSpace=wrap;html=1;boundedLbl=1;backgroundOutline=1;size=15;rounded=0;strokeColor=#000000;shadow=0;fillColor=none;" parent="1" vertex="1">
          <mxGeometry x="1000" y="360" width="60" height="80" as="geometry" />
        </mxCell>
        <mxCell id="sRA0HymiXK-Kiw4v2JPw-1" value="&lt;h3&gt;&lt;font face=&quot;roboto&quot; data-font-src=&quot;https://fonts.googleapis.com/css?family=roboto&quot; color=&quot;#ffffff&quot;&gt;DB&lt;/font&gt;&lt;/h3&gt;" style="shape=cylinder3;whiteSpace=wrap;html=1;boundedLbl=1;backgroundOutline=1;size=15;rounded=0;strokeColor=#000000;shadow=0;fillColor=none;" parent="1" vertex="1">
          <mxGeometry x="1000" y="640" width="60" height="80" as="geometry" />
        </mxCell>
        <mxCell id="EQDMDmAZsALsS-63rVwj-1" value="" style="endArrow=none;html=1;strokeColor=#000000;shadow=0;" edge="1" parent="1">
          <mxGeometry width="50" height="50" relative="1" as="geometry">
            <mxPoint x="580" y="410" as="sourcePoint" />
            <mxPoint x="620" y="410" as="targetPoint" />
          </mxGeometry>
        </mxCell>
        <mxCell id="EQDMDmAZsALsS-63rVwj-2" value="" style="endArrow=none;html=1;shadow=0;strokeColor=#000000;" edge="1" parent="1">
          <mxGeometry width="50" height="50" relative="1" as="geometry">
            <mxPoint x="620" y="390" as="sourcePoint" />
            <mxPoint x="620" y="350" as="targetPoint" />
          </mxGeometry>
        </mxCell>
        <mxCell id="EQDMDmAZsALsS-63rVwj-3" value="" style="endArrow=none;html=1;shadow=0;strokeColor=#000000;" edge="1" parent="1">
          <mxGeometry width="50" height="50" relative="1" as="geometry">
            <mxPoint x="640" y="349.8" as="sourcePoint" />
            <mxPoint x="620" y="349.8" as="targetPoint" />
          </mxGeometry>
        </mxCell>
        <mxCell id="EQDMDmAZsALsS-63rVwj-5" value="" style="endArrow=none;html=1;shadow=0;strokeColor=#000000;" edge="1" parent="1">
          <mxGeometry width="50" height="50" relative="1" as="geometry">
            <mxPoint x="640" y="450" as="sourcePoint" />
            <mxPoint x="620" y="450" as="targetPoint" />
          </mxGeometry>
        </mxCell>
        <mxCell id="EQDMDmAZsALsS-63rVwj-6" value="" style="rounded=0;whiteSpace=wrap;html=1;shadow=0;strokeColor=#000000;fillColor=none;" vertex="1" parent="1">
          <mxGeometry x="640" y="340" width="80" height="20" as="geometry" />
        </mxCell>
        <mxCell id="EQDMDmAZsALsS-63rVwj-7" value="" style="rounded=0;whiteSpace=wrap;html=1;shadow=0;strokeColor=#000000;fillColor=none;" vertex="1" parent="1">
          <mxGeometry x="640" y="440" width="80" height="20" as="geometry" />
        </mxCell>
        <mxCell id="EQDMDmAZsALsS-63rVwj-8" value="" style="endArrow=none;html=1;shadow=0;strokeColor=#000000;" edge="1" parent="1">
          <mxGeometry width="50" height="50" relative="1" as="geometry">
            <mxPoint x="740" y="349.66" as="sourcePoint" />
            <mxPoint x="720" y="349.66" as="targetPoint" />
          </mxGeometry>
        </mxCell>
        <mxCell id="EQDMDmAZsALsS-63rVwj-9" value="" style="endArrow=none;html=1;strokeColor=#000000;shadow=0;" edge="1" parent="1">
          <mxGeometry width="50" height="50" relative="1" as="geometry">
            <mxPoint x="740" y="320" as="sourcePoint" />
            <mxPoint x="740" y="380" as="targetPoint" />
          </mxGeometry>
        </mxCell>
        <mxCell id="EQDMDmAZsALsS-63rVwj-10" value="" style="endArrow=none;html=1;shadow=0;strokeColor=#000000;" edge="1" parent="1">
          <mxGeometry width="50" height="50" relative="1" as="geometry">
            <mxPoint x="760" y="320" as="sourcePoint" />
            <mxPoint x="740" y="320" as="targetPoint" />
          </mxGeometry>
        </mxCell>
        <mxCell id="EQDMDmAZsALsS-63rVwj-11" value="" style="endArrow=none;html=1;shadow=0;strokeColor=#000000;" edge="1" parent="1">
          <mxGeometry width="50" height="50" relative="1" as="geometry">
            <mxPoint x="760" y="379.90000000000003" as="sourcePoint" />
            <mxPoint x="740" y="379.90000000000003" as="targetPoint" />
          </mxGeometry>
        </mxCell>
        <mxCell id="EQDMDmAZsALsS-63rVwj-12" value="" style="endArrow=none;html=1;shadow=0;strokeColor=#000000;" edge="1" parent="1">
          <mxGeometry width="50" height="50" relative="1" as="geometry">
            <mxPoint x="760" y="349.90000000000003" as="sourcePoint" />
            <mxPoint x="740" y="349.90000000000003" as="targetPoint" />
          </mxGeometry>
        </mxCell>
        <mxCell id="EQDMDmAZsALsS-63rVwj-13" value="" style="rounded=0;whiteSpace=wrap;html=1;shadow=0;strokeColor=#000000;fillColor=none;" vertex="1" parent="1">
          <mxGeometry x="760" y="310" width="80" height="20" as="geometry" />
        </mxCell>
        <mxCell id="EQDMDmAZsALsS-63rVwj-14" value="" style="rounded=0;whiteSpace=wrap;html=1;shadow=0;strokeColor=#000000;fillColor=none;" vertex="1" parent="1">
          <mxGeometry x="760" y="340" width="80" height="20" as="geometry" />
        </mxCell>
        <mxCell id="EQDMDmAZsALsS-63rVwj-15" value="" style="rounded=0;whiteSpace=wrap;html=1;shadow=0;strokeColor=#000000;fillColor=none;" vertex="1" parent="1">
          <mxGeometry x="760" y="370" width="80" height="20" as="geometry" />
        </mxCell>
        <mxCell id="EQDMDmAZsALsS-63rVwj-16" value="" style="endArrow=none;html=1;shadow=0;strokeColor=#000000;" edge="1" parent="1">
          <mxGeometry width="50" height="50" relative="1" as="geometry">
            <mxPoint x="620" y="450" as="sourcePoint" />
            <mxPoint x="620" y="410" as="targetPoint" />
          </mxGeometry>
        </mxCell>
      </root>
    </mxGraphModel>
  </diagram>
</mxfile>
